<?xml version="1.0" encoding="UTF-8" standalone="no"?>
<svg
   xmlns:dc="http://purl.org/dc/elements/1.1/"
   xmlns:cc="http://creativecommons.org/ns#"
   xmlns:rdf="http://www.w3.org/1999/02/22-rdf-syntax-ns#"
   xmlns:svg="http://www.w3.org/2000/svg"
   xmlns="http://www.w3.org/2000/svg"
   xmlns:sodipodi="http://sodipodi.sourceforge.net/DTD/sodipodi-0.dtd"
   xmlns:inkscape="http://www.inkscape.org/namespaces/inkscape"
   id="master-artboard"
   viewBox="0 0 336 235.2"
   version="1.1"
   x="0px"
   y="0px"
   style="enable-background:new 0 0 336 235.2;"
   width="336px"
   height="235.1999969482422px"
   inkscape:version="0.91 r13725"
   sodipodi:docname="p3-mountains.svg">
  <metadata
     id="metadata549">
    <rdf:RDF>
      <cc:Work
         rdf:about="">
        <dc:format>image/svg+xml</dc:format>
        <dc:type
           rdf:resource="http://purl.org/dc/dcmitype/StillImage" />
        <dc:title></dc:title>
      </cc:Work>
    </rdf:RDF>
  </metadata>
  <defs
     id="defs547" />
  <sodipodi:namedview
     pagecolor="#ffffff"
     bordercolor="#666666"
     borderopacity="1"
     objecttolerance="10"
     gridtolerance="10"
     guidetolerance="10"
     inkscape:pageopacity="0"
     inkscape:pageshadow="2"
     inkscape:window-width="1920"
     inkscape:window-height="1027"
     id="namedview545"
     showgrid="false"
     inkscape:zoom="2.4243661"
     inkscape:cx="126.91277"
     inkscape:cy="135.59446"
     inkscape:window-x="-8"
     inkscape:window-y="-8"
     inkscape:window-maximized="1"
     inkscape:current-layer="master-artboard" />
  <path
     class="st3"
     d="m -20.548569,236.29876 33.307635,-56.05276 11.709717,7.91523 20.29684,-40.70691 16.133386,3.87686 c 0,0 18.605438,-49.59135 19.12587,-46.68371 0.520431,2.90763 16.523709,37.4762 16.523709,37.4762 l 24.330192,-54.275879 21.3377,47.652929 18.47533,-73.660116 15.22263,51.691316 33.17753,-58.152729 21.07748,15.345855 16.26349,72.206294 17.95491,-22.13034 5.72475,49.10674 26.02159,-26.9764 15.61295,37.31466 20.68716,3.06917 7.41616,30.69171"
     style="opacity:0.5;fill:#585e6d"
     id="path11"
     inkscape:connector-curvature="0" />
  <path
     d="m 213.12532,104.809 5.85486,-3.06917 9.7581,-0.16153 5.72474,-4.19992 4.55378,3.71532 1.95162,-3.71532 4.16344,0 6.76561,-7.59216 8.06672,0 11.44948,-4.361462 10.92908,5.653737 3.12258,6.138345 8.71723,-2.09996 4.16347,9.69212 z"
     class="st4"
     style="fill:#f9f5eb"
     id="path13"
     inkscape:connector-curvature="0" />
  <path
     d="m -9.0990704,71.209657 6.7656144,-3.553784 11.1892848,-0.161533 6.5053952,-4.84606 5.204318,4.361449 2.341947,-4.361449 4.813991,0 7.676371,-8.722909 9.237663,0 13.271017,-5.007592 12.490362,6.461412 3.51291,6.946024 10.148425,-2.261497 4.683883,11.145939 z"
     class="st4"
     style="fill:#f9f5eb"
     id="path15"
     inkscape:connector-curvature="0" />
  <path
     d="M 35.400001525878906 34.79999923706055 L 40.70000076293945 32.599998474121094 L 49.29999923706055 32.5 L 54.29999923706055 29.5 L 58.29999923706055 32.099998474121094 L 60.099998474121094 29.5 L 63.70000076293945 29.5 L 69.69999694824219 24.100000381469727 L 76.80000305175781 24.100000381469727 L 86.9000015258789 21 L 96.5999984741211 25 L 99.30000305175781 29.299999237060547 L 107.0999984741211 27.899999618530273 L 110.69999694824219 34.79999923706055 Z"
     class="st4"
     style="fill: rgb(249, 245, 235); opacity: 0.5;"
     transform="matrix(1, 0, 0, 1, 0, 0)"
     id="path17" />
  <path
     d="M 193.600006 51.900002 L 200.199997 51.099998 L 196.899994 56.700001 L 199.899994 62.700001 L 186.899994 63.799999"
     class="st5"
     style="fill: rgb(208, 60, 0);"
     transform="matrix(1, 0, 0, 1, 0, 0)"
     id="path19" />
  <path
     d="M 186.899994 63.799999 L 188.100006 61.599998 L 194.199997 60.900002"
     class="st7"
     style="fill: rgb(173, 0, 0);"
     transform="matrix(1, 0, 0, 1, 0, 0)"
     id="path23" />
  <path
     class="st8"
     d="m 44.765623,236.29876 -56.727067,0 c 18.3452214,0 25.761374,-9.53059 25.761374,-9.53059 33.958176,-45.22989 47.099079,-43.453 47.099079,-43.453"
     style="fill:#b0dc49"
     id="path29"
     inkscape:connector-curvature="0" />
  <g
     transform="matrix(1.3010795,0,0,1.6153532,-30.306666,-81.925832)"
     id="g31">
    <g
       id="g33">
      <path
         d="m 157.5,108.7 18.7,-37.7 18.69999,35.7 -3.09999,20.6 -45,17.09999"
         class="st4"
         style="fill:#f9f5eb"
         id="path35"
         inkscape:connector-curvature="0" />
    </g>
  </g>
  <g
     transform="matrix(1.3010795,0,0,1.6153532,-30.306666,-81.925832)"
     id="g37">
    <path
       d="M 196.60001,147.7 214.5,135.39999 218,122.5 l 12.89999,23.10001 0,27.59999 -34.59999,0.5"
       class="st4"
       style="fill:#f9f5eb"
       id="path39"
       inkscape:connector-curvature="0" />
  </g>
  <g
     transform="matrix(1.3010795,0,0,1.6153532,-30.306666,-81.925832)"
     id="g41">
    <path
       d="M 263.79999,197 252.5,173.7 230.89999,145.60001 227.7,155.89999 222.89999,145.60001 218,164.10001 213.60001,150.39999 206.5,164.5 206.5,145.60001 163,196.89999 166.5,197 Z"
       class="st9"
       style="fill:#6b7485"
       id="path43"
       inkscape:connector-curvature="0" />
  </g>
  <g
     transform="matrix(1.3010795,0,0,1.6153532,-30.306666,-81.925832)"
     id="g45">
    <path
       d="m 178.5,197 28,-51.39999 L 194.7,107.4 192.10001,122.5 186,111.6 178.39999,131.60001 171.10001,99.900002 162.7,118.2 157.10001,110.1 143,126.1 l -33.6,57.1 0,13.8 z"
       class="st9"
       style="fill:#6b7485"
       id="path47"
       inkscape:connector-curvature="0" />
  </g>
  <g
     transform="matrix(1.3010795,0,0,1.6153532,-30.306666,-81.925832)"
     id="g49">
    <path
       d="M 172.39999,182.89999 177.10001,197 l 1.39999,0 2,-3.7 26,-47.69999 L 194.89999,106.7 192.10001,122.5 186,111.6 178.39999,131.60001 175.2,119.6 168.10001,133.89999 172.89999,144 163.8,153.8 Z"
       class="st3"
       style="fill:#585e6d"
       id="path51"
       inkscape:connector-curvature="0" />
  </g>
  <g
     transform="matrix(1.3010795,0,0,1.6153532,-30.306666,-81.925832)"
     id="g53">
    <path
       d="M 236.2,185.8 234,197 263.79999,197 252.5,173.7 230.89999,145.60001 227.7,155.89999 l -4.80001,-10.29998 -4.89999,18.5 9.8,6.79998 z"
       class="st3"
       style="fill:#585e6d"
       id="path55"
       inkscape:connector-curvature="0" />
  </g>
  <g
     transform="matrix(1.3010795,0,0,1.6153532,-30.306666,-81.925832)"
     id="g57">
    <path
       d="m 176.2,71 3.3,23.199997 6.5,17.400003 6.10001,10.9 2.79998,-15.8"
       class="st10"
       style="fill:#ede9df"
       id="path59"
       inkscape:connector-curvature="0" />
  </g>
  <g
     transform="matrix(1.3010795,0,0,1.6153532,-30.306666,-81.925832)"
     id="g61">
    <path
       d="m 218,122.5 1.2,13.5 3.69999,9.60001 4.80001,10.29998 3.19999,-10.29998"
       class="st10"
       style="fill:#ede9df"
       id="path63"
       inkscape:connector-curvature="0" />
  </g>
  <g
     transform="matrix(1.3010795,0,0,1.6153532,-30.306666,-81.925832)"
     id="g65">
    <g
       id="g67">
      <path
         d="M 99.800003,120.1 116.2,87 l 16.40001,31.4 -2.80001,17.99999 -39.399998,15"
         class="st4"
         style="fill:#f9f5eb"
         id="path69"
         inkscape:connector-curvature="0" />
    </g>
  </g>
  <g
     transform="matrix(1.3010795,0,0,1.6153532,-30.306666,-81.925832)"
     id="g71">
    <path
       d="M 134.10001,154.3 149.7,143.39999 152.89999,132.2 l 11.20002,20.19999 0,24.20002 -30.30001,0.5"
       class="st4"
       style="fill:#f9f5eb"
       id="path73"
       inkscape:connector-curvature="0" />
  </g>
  <g
     transform="matrix(1.3010795,0,0,1.6153532,-30.306666,-81.925832)"
     id="g75">
    <path
       d="m 104.9,197 87.9,0 -9.69999,-19.89999 -19,-24.70002 -2.70002,9 -4.29998,-9 -4.20002,16.20002 -3.89999,-12 -6.2,12.39999 0,-16.60001 z"
       class="st9"
       style="fill:#6b7485"
       id="path77"
       inkscape:connector-curvature="0" />
  </g>
  <g
     transform="matrix(1.3010795,0,0,1.6153532,-30.306666,-81.925832)"
     id="g79">
    <path
       d="M 118.4,197 142.8,152.39999 132.39999,118.9 l -2.29998,13.3 -5.30001,-9.6 -6.7,17.6 -6.4,-27.8 -7.4,15.99999 -4.899998,-7.09999 -12.300004,14 -29.399997,50 0,11.7 z"
       class="st9"
       style="fill:#6b7485"
       id="path81"
       inkscape:connector-curvature="0" />
  </g>
  <g
     transform="matrix(1.3010795,0,0,1.6153532,-30.306666,-81.925832)"
     id="g83">
    <path
       d="m 112.8,185.2 4,11.8 1.6,0 1.5,-2.7 22.9,-41.90001 -10.19999,-33.99999 -2.5,13.8 -5.30001,-9.6 -6.7,17.6 -2.8,-10.59999 -6.2,12.59999 4.2,8.8 -8,8.60001 z"
       class="st3"
       style="fill:#585e6d"
       id="path85"
       inkscape:connector-curvature="0" />
  </g>
  <g
     transform="matrix(1.3010795,0,0,1.6153532,-30.306666,-81.925832)"
     id="g87">
    <path
       d="m 168.8,187.7 -1.8,9.3 25.8,0 -9.69999,-19.89999 -19,-24.70002 -2.70002,9 -4.29998,-9 -4.20002,16.20002 8.5,6 z"
       class="st3"
       style="fill:#585e6d"
       id="path89"
       inkscape:connector-curvature="0" />
  </g>
  <g
     transform="matrix(1.3010795,0,0,1.6153532,-30.306666,-81.925832)"
     id="g91">
    <path
       d="m 116.2,87 2.9,20.4 5.7,15.2 5.30001,9.6 2.5,-13.8"
       class="st10"
       style="fill:#ede9df"
       id="path93"
       inkscape:connector-curvature="0" />
  </g>
  <g
     transform="matrix(1.3010795,0,0,1.6153532,-30.306666,-81.925832)"
     id="g95">
    <path
       d="m 152.89999,132.2 1,11.8 3.20002,8.39999 4.29998,9 2.70002,-9"
       class="st10"
       style="fill:#ede9df"
       id="path97"
       inkscape:connector-curvature="0" />
  </g>
  <path
     class="st11"
     d="m 223.14363,236.29876 166.27796,4.36145 c -12.49036,-2.09995 -23.93987,-9.69212 -32.7872,-15.02279 -8.97745,-5.33066 -12.75058,-12.92282 -20.03663,-16.15353 -7.28605,-3.23071 -33.43774,-5.33067 -33.43774,-5.33067 l -23.54954,-39.89922 -19.12588,26.81487 -19.51618,7.7537 -13.27101,-15.34587 -17.17425,27.62254"
     style="fill:#56cd6b"
     id="path99"
     inkscape:connector-curvature="0" />
  <path
     class="st11"
     d="m 80.024879,142.93134 c 0,0 18.605432,16.9612 37.080761,19.06117 18.47533,2.09996 20.16674,16.79967 20.16674,16.79967 l 9.36777,5.33067 -10.14843,23.09955 c 0,0 -66.615262,-51.52977 -91.856204,10.17672"
     style="fill:#56cd6b"
     id="path101"
     inkscape:connector-curvature="0" />
  <path
     class="st12"
     d="m 286.11588,192.68422 c -1.43119,-1.29228 -2.73227,-2.7461 -4.03335,-4.19991 -3.64302,-4.03839 -7.28604,-8.23831 -10.92907,-12.43822 l -10.66886,15.02278 12.8807,18.89962 -3.2527,21.96882 13.1409,5.81527 24.98073,0.64613 c -7.02584,-9.53058 -13.27102,-20.19191 -17.56457,-31.82246 -1.69141,-4.52299 -3.12259,-9.20751 -4.55378,-13.89203 z"
     style="fill:#41ab80"
     id="path103"
     inkscape:connector-curvature="0" />
  <path
     class="st13"
     d="m 303.02991,204.15322 24.46029,15.18433 0,8.07677 20.16674,13.24589 14.05166,-0.64614 c 0,0 -34.3485,-26.16872 -33.30764,-32.63014"
     style="fill:#4eb85a"
     id="path105"
     inkscape:connector-curvature="0" />
  <path
     d="m 240.96842,198.66102 -15.87317,8.56138 2.86237,15.1843 -13.53122,-3.87683 -3.77314,-7.59215 17.04415,-27.62255"
     class="st14"
     style="fill:#afd744"
     id="path107"
     inkscape:connector-curvature="0" />
  <path
     class="st13"
     d="m 123.74115,236.29876 12.75057,-29.07636 c 0,0 -48.92058,-43.29147 -81.968001,-7.26909 0,0 -14.832306,17.44581 -17.434465,36.34545"
     style="fill:#4eb85a"
     id="path109"
     inkscape:connector-curvature="0" />
  <path
     class="st12"
     d="m 117.10564,161.99251 7.28605,18.09195 -5.20432,18.57656 9.10756,26.33027 18.34522,-40.86844 c 0,0 -9.75809,-20.83806 -29.53451,-22.13034 z"
     style="fill:#41ab80"
     id="path111"
     inkscape:connector-curvature="0" />
  <path
     d="M 97.589455,155.20803 81.846386,163.44632 70.13667,180.24601 66.62376,193.4919 50.750588,204.96091 80.4152,141.96214"
     class="st8"
     style="fill:#b0dc49"
     id="path113"
     inkscape:connector-curvature="0" />
  <path
     class="st11"
     d="m 60.899009,183.31517 c 0,0 -4.293562,14.69972 -10.14842,21.64573 -7.025829,8.39984 -13.531227,28.91482 -13.531227,31.33786 l -13.401119,0 c 0,0 19.776409,-45.55296 37.080766,-52.98359 z"
     style="fill:#56cd6b"
     id="path115"
     inkscape:connector-curvature="0" />
  <g
     transform="matrix(1.3010795,0,0,1.6153532,-30.306666,-81.925832)"
     id="g117">
    <g
       id="g119">
      <path
         d="m 256.10001,176.3 0,7.9"
         class="st15"
         style="fill:#748c98"
         id="path121"
         inkscape:connector-curvature="0" />
    </g>
    <g
       id="g123">
      <path
         class="st3"
         d="m 256.1,184.7 c -0.3,0 -0.5,-0.2 -0.5,-0.5 l 0,-7.9 c 0,-0.3 0.2,-0.5 0.5,-0.5 0.3,0 0.5,0.2 0.5,0.5 l 0,7.9 c 0,0.3 -0.2,0.5 -0.5,0.5 z"
         style="fill:#585e6d"
         id="path125"
         inkscape:connector-curvature="0" />
    </g>
  </g>
  <g
     transform="matrix(1.3010795,0,0,1.6153532,-30.306666,-81.925832)"
     id="g127">
    <path
       d="m 256.20001,166.5 -3.00001,16.7 3.00001,0"
       class="st16"
       style="fill:#bdf37e"
       id="path129"
       inkscape:connector-curvature="0" />
  </g>
  <g
     transform="matrix(1.3010795,0,0,1.6153532,-30.306666,-81.925832)"
     id="g131">
    <path
       d="m 256.10001,166.5 3.1,16.7 -3.1,0"
       class="st16"
       style="fill:#bdf37e"
       id="path133"
       inkscape:connector-curvature="0" />
  </g>
  <g
     transform="matrix(1.3010795,0,0,1.6153532,-30.306666,-81.925832)"
     id="g135">
    <g
       id="g137">
      <path
         d="m 243.89999,172 0,7.89999"
         class="st15"
         style="fill:#748c98"
         id="path139"
         inkscape:connector-curvature="0" />
    </g>
    <g
       id="g141">
      <path
         class="st3"
         d="m 243.9,180.4 c -0.3,0 -0.5,-0.2 -0.5,-0.5 l 0,-7.9 c 0,-0.3 0.2,-0.5 0.5,-0.5 0.3,0 0.5,0.2 0.5,0.5 l 0,7.9 c -0.1,0.3 -0.3,0.5 -0.5,0.5 z"
         style="fill:#585e6d"
         id="path143"
         inkscape:connector-curvature="0" />
    </g>
  </g>
  <g
     transform="matrix(1.3010795,0,0,1.6153532,-30.306666,-81.925832)"
     id="g145">
    <path
       d="m 244,162.2 -3.10001,16.69999 3.10001,0"
       class="st16"
       style="fill:#bdf37e"
       id="path147"
       inkscape:connector-curvature="0" />
  </g>
  <g
     transform="matrix(1.3010795,0,0,1.6153532,-30.306666,-81.925832)"
     id="g149">
    <path
       d="m 243.89999,162.2 3,16.69999 -3,0"
       class="st16"
       style="fill:#bdf37e"
       id="path151"
       inkscape:connector-curvature="0" />
  </g>
  <g
     transform="matrix(1.3010795,0,0,1.6153532,-30.306666,-81.925832)"
     id="g153">
    <g
       id="g155">
      <path
         d="m 268.29999,183.89999 0,8"
         class="st15"
         style="fill:#748c98"
         id="path157"
         inkscape:connector-curvature="0" />
    </g>
    <g
       id="g159">
      <path
         class="st3"
         d="m 268.3,192.3 c -0.3,0 -0.5,-0.2 -0.5,-0.5 l 0,-7.9 c 0,-0.3 0.2,-0.5 0.5,-0.5 0.3,0 0.5,0.2 0.5,0.5 l 0,7.9 c 0,0.3 -0.2,0.5 -0.5,0.5 z"
         style="fill:#585e6d"
         id="path161"
         inkscape:connector-curvature="0" />
    </g>
  </g>
  <g
     transform="matrix(1.3010795,0,0,1.6153532,-30.306666,-81.925832)"
     id="g163">
    <path
       d="m 268.39999,174.10001 -3,16.79998 3,0"
       class="st16"
       style="fill:#bdf37e"
       id="path165"
       inkscape:connector-curvature="0" />
  </g>
  <g
     transform="matrix(1.3010795,0,0,1.6153532,-30.306666,-81.925832)"
     id="g167">
    <path
       d="m 268.39999,174.10001 3,16.79998 -3,0"
       class="st16"
       style="fill:#bdf37e"
       id="path169"
       inkscape:connector-curvature="0" />
  </g>
  <g
     transform="matrix(1.3010795,0,0,1.6153532,-30.306666,-81.925832)"
     id="g171">
    <g
       id="g173">
      <path
         d="m 237.89999,186.89999 0,7.90001"
         class="st15"
         style="fill:#748c98"
         id="path175"
         inkscape:connector-curvature="0" />
    </g>
    <g
       id="g177">
      <path
         class="st3"
         d="m 237.9,195.3 c -0.3,0 -0.5,-0.2 -0.5,-0.5 l 0,-7.9 c 0,-0.3 0.2,-0.5 0.5,-0.5 0.3,0 0.5,0.2 0.5,0.5 l 0,7.9 c -0.1,0.3 -0.3,0.5 -0.5,0.5 z"
         style="fill:#585e6d"
         id="path179"
         inkscape:connector-curvature="0" />
    </g>
  </g>
  <g
     transform="matrix(1.3010795,0,0,1.6153532,-30.306666,-81.925832)"
     id="g181">
    <path
       d="m 237.89999,177.10001 -3,16.69999 3,0"
       class="st16"
       style="fill:#bdf37e"
       id="path183"
       inkscape:connector-curvature="0" />
  </g>
  <g
     transform="matrix(1.3010795,0,0,1.6153532,-30.306666,-81.925832)"
     id="g185">
    <path
       d="m 237.89999,177.10001 3,16.69999 -3,0"
       class="st16"
       style="fill:#bdf37e"
       id="path187"
       inkscape:connector-curvature="0" />
  </g>
  <g
     transform="matrix(1.3010795,0,0,1.6153532,-30.306666,-81.925832)"
     id="g189">
    <g
       id="g191">
      <path
         d="m 223.39999,180.60001 0,7.89999"
         class="st15"
         style="fill:#748c98"
         id="path193"
         inkscape:connector-curvature="0" />
    </g>
    <g
       id="g195">
      <path
         class="st3"
         d="m 223.4,189 c -0.3,0 -0.5,-0.2 -0.5,-0.5 l 0,-7.9 c 0,-0.3 0.2,-0.5 0.5,-0.5 0.3,0 0.5,0.2 0.5,0.5 l 0,7.9 c 0,0.3 -0.2,0.5 -0.5,0.5 z"
         style="fill:#585e6d"
         id="path197"
         inkscape:connector-curvature="0" />
    </g>
  </g>
  <g
     transform="matrix(1.3010795,0,0,1.6153532,-30.306666,-81.925832)"
     id="g199">
    <path
       d="m 223.5,170.8 -3,16.7 3,0"
       class="st16"
       style="fill:#bdf37e"
       id="path201"
       inkscape:connector-curvature="0" />
  </g>
  <g
     transform="matrix(1.3010795,0,0,1.6153532,-30.306666,-81.925832)"
     id="g203">
    <path
       d="m 223.39999,170.8 3.10001,16.7 -3.10001,0"
       class="st16"
       style="fill:#bdf37e"
       id="path205"
       inkscape:connector-curvature="0" />
  </g>
  <g
     transform="matrix(1.3010795,0,0,1.6153532,-30.306666,-81.925832)"
     id="g207">
    <g
       id="g209">
      <path
         d="m 100.5,179.89999 0,7.90001"
         class="st15"
         style="fill:#748c98"
         id="path211"
         inkscape:connector-curvature="0" />
    </g>
    <g
       id="g213">
      <path
         class="st3"
         d="m 100.5,188.3 c -0.3,0 -0.5,-0.2 -0.5,-0.5 l 0,-7.9 c 0,-0.3 0.2,-0.5 0.5,-0.5 0.3,0 0.5,0.2 0.5,0.5 l 0,7.9 c -0.1,0.3 -0.3,0.5 -0.5,0.5 z"
         style="fill:#585e6d"
         id="path215"
         inkscape:connector-curvature="0" />
    </g>
  </g>
  <g
     transform="matrix(1.3010795,0,0,1.6153532,-30.306666,-81.925832)"
     id="g217">
    <path
       d="m 100.5,170.10001 -3,16.69999 3,0"
       class="st16"
       style="fill:#bdf37e"
       id="path219"
       inkscape:connector-curvature="0" />
  </g>
  <g
     transform="matrix(1.3010795,0,0,1.6153532,-30.306666,-81.925832)"
     id="g221">
    <path
       d="m 100.5,170.10001 3,16.69999 -3,0"
       class="st16"
       style="fill:#bdf37e"
       id="path223"
       inkscape:connector-curvature="0" />
  </g>
  <g
     transform="matrix(1.3010795,0,0,1.6153532,-30.306666,-81.925832)"
     id="g225">
    <g
       id="g227">
      <path
         d="m 90,167.2 0,7.90001"
         class="st15"
         style="fill:#748c98"
         id="path229"
         inkscape:connector-curvature="0" />
    </g>
    <g
       id="g231">
      <path
         class="st3"
         d="m 90,175.6 c -0.3,0 -0.5,-0.2 -0.5,-0.5 l 0,-7.9 c 0,-0.3 0.2,-0.5 0.5,-0.5 0.3,0 0.5,0.2 0.5,0.5 l 0,7.9 c 0,0.3 -0.2,0.5 -0.5,0.5 z"
         style="fill:#585e6d"
         id="path233"
         inkscape:connector-curvature="0" />
    </g>
  </g>
  <g
     transform="matrix(1.3010795,0,0,1.6153532,-30.306666,-81.925832)"
     id="g235">
    <path
       d="M 90.099998,157.39999 87,174.10001 l 3.099998,0"
       class="st16"
       style="fill:#bdf37e"
       id="path237"
       inkscape:connector-curvature="0" />
  </g>
  <g
     transform="matrix(1.3010795,0,0,1.6153532,-30.306666,-81.925832)"
     id="g239">
    <path
       d="m 90,157.39999 3.099998,16.70002 -3.099998,0"
       class="st16"
       style="fill:#bdf37e"
       id="path241"
       inkscape:connector-curvature="0" />
  </g>
  <g
     transform="matrix(1.3010795,0,0,1.6153532,-30.306666,-81.925832)"
     id="g243">
    <g
       id="g245">
      <path
         d="m 67,178.3 0,8"
         class="st15"
         style="fill:#748c98"
         id="path247"
         inkscape:connector-curvature="0" />
    </g>
    <g
       id="g249">
      <path
         class="st3"
         d="m 67,186.7 c -0.3,0 -0.5,-0.2 -0.5,-0.5 l 0,-7.9 c 0,-0.3 0.2,-0.5 0.5,-0.5 0.3,0 0.5,0.2 0.5,0.5 l 0,7.9 c 0,0.3 -0.2,0.5 -0.5,0.5 z"
         style="fill:#585e6d"
         id="path251"
         inkscape:connector-curvature="0" />
    </g>
  </g>
  <g
     transform="matrix(1.3010795,0,0,1.6153532,-30.306666,-81.925832)"
     id="g253">
    <path
       d="m 67.099998,168.5 -3,16.8 3,0"
       class="st16"
       style="fill:#bdf37e"
       id="path255"
       inkscape:connector-curvature="0" />
  </g>
  <g
     transform="matrix(1.3010795,0,0,1.6153532,-30.306666,-81.925832)"
     id="g257">
    <path
       d="m 67.099998,168.5 3,16.8 -3,0"
       class="st16"
       style="fill:#bdf37e"
       id="path259"
       inkscape:connector-curvature="0" />
  </g>
  <g
     transform="matrix(1.3010795,0,0,1.6153532,-30.306666,-81.925832)"
     id="g261">
    <g
       id="g263">
      <path
         d="m 83.300003,184.2 0,7.90001"
         class="st15"
         style="fill:#748c98"
         id="path265"
         inkscape:connector-curvature="0" />
    </g>
    <g
       id="g267">
      <path
         class="st3"
         d="m 83.3,192.6 c -0.3,0 -0.5,-0.2 -0.5,-0.5 l 0,-7.9 c 0,-0.3 0.2,-0.5 0.5,-0.5 0.3,0 0.5,0.2 0.5,0.5 l 0,7.9 c -0.1,0.3 -0.3,0.5 -0.5,0.5 z"
         style="fill:#585e6d"
         id="path269"
         inkscape:connector-curvature="0" />
    </g>
  </g>
  <g
     transform="matrix(1.3010795,0,0,1.6153532,-30.306666,-81.925832)"
     id="g271">
    <path
       d="m 83.300003,174.39999 -3,16.70002 3,0"
       class="st16"
       style="fill:#bdf37e"
       id="path273"
       inkscape:connector-curvature="0" />
  </g>
  <g
     transform="matrix(1.3010795,0,0,1.6153532,-30.306666,-81.925832)"
     id="g275">
    <path
       d="m 83.300003,174.39999 3,16.70002 -3,0"
       class="st16"
       style="fill:#bdf37e"
       id="path277"
       inkscape:connector-curvature="0" />
  </g>
  <g
     transform="matrix(1.3010795,0,0,1.6153532,-30.306666,-81.925832)"
     id="g279">
    <g
       id="g281">
      <path
         d="m 109.4,169.2 0,8"
         class="st15"
         style="fill:#748c98"
         id="path283"
         inkscape:connector-curvature="0" />
    </g>
    <g
       id="g285">
      <path
         class="st3"
         d="m 109.4,177.6 c -0.3,0 -0.5,-0.2 -0.5,-0.5 l 0,-7.9 c 0,-0.3 0.2,-0.5 0.5,-0.5 0.3,0 0.5,0.2 0.5,0.5 l 0,7.9 c 0,0.3 -0.2,0.5 -0.5,0.5 z"
         style="fill:#585e6d"
         id="path287"
         inkscape:connector-curvature="0" />
    </g>
  </g>
  <g
     transform="matrix(1.3010795,0,0,1.6153532,-30.306666,-81.925832)"
     id="g289">
    <path
       d="m 109.5,159.39999 -3.1,16.80001 3.1,0"
       class="st16"
       style="fill:#bdf37e"
       id="path291"
       inkscape:connector-curvature="0" />
  </g>
  <g
     transform="matrix(1.3010795,0,0,1.6153532,-30.306666,-81.925832)"
     id="g293">
    <path
       d="m 109.4,159.39999 3.1,16.80001 -3.1,0"
       class="st16"
       style="fill:#bdf37e"
       id="path295"
       inkscape:connector-curvature="0" />
  </g>
  <path
     class="st4"
     d="m 118.4,235.2 c 0,-0.5 0.1,-1 0.1,-1.5 0,-12.9 -10.5,-23.3 -23.3,-23.3 -12.8,0 -23.3,10.4 -23.3,23.3 0,0.5 0,1 0.1,1.5 l 46.4,0 z"
     style="fill:#f9f5eb"
     id="path521"
     inkscape:connector-curvature="0" />
  <path
     class="st4"
     d="M239.6,235.2c-2.2-10.6-11.6-18.6-22.9-18.6c-11.3,0-20.7,8-22.9,18.6H239.6z"
     style="fill: rgb(249, 245, 235);"
     transform="matrix(1, 0, 0, 1, 0, 0)"
     id="path525" />
  <path
     class="st4"
     d="M275.3,235.2c1.2-2.9,1.8-6.1,1.8-9.5c0-14.3-11.6-25.9-25.9-25.9c-14.3,0-25.9,11.6-25.9,25.9   c0,3.3,0.6,6.5,1.8,9.5H275.3z"
     style="fill: rgb(249, 245, 235);"
     transform="matrix(1, 0, 0, 1, 0, 0)"
     id="path527" />
  <path
     class="st4"
     d="m 313.1,235.2 c 2.4,-3.9 3.7,-8.5 3.7,-13.4 0,-14.3 -11.6,-25.9 -25.9,-25.9 -14.3,0 -25.9,11.6 -25.9,25.9 0,4.9 1.4,9.5 3.7,13.4 l 44.4,0 z"
     style="fill:#f9f5eb"
     id="path529"
     inkscape:connector-curvature="0" />
  <path
     class="st4"
     d="m 56.2,227.9 c 5.5,0 10.7,-1.7 14.9,-4.7 4.7,6.3 12.3,10.4 20.7,10.4 3.6,0 7,-0.7 10.1,-2 -0.1,0.7 -0.1,1.4 -0.1,2.1 0,0.5 0,1 0,1.5 l 51.7,0 c 0,-0.5 0,-1 0,-1.5 0,-14.3 -11.6,-25.9 -25.9,-25.9 -3.6,0 -7,0.7 -10.1,2 0.1,-0.7 0.1,-1.4 0.1,-2.1 0,-14.3 -11.6,-25.9 -25.9,-25.9 -5.5,0 -10.7,1.7 -14.9,4.7 -4.7,-6.3 -12.3,-10.4 -20.7,-10.4 -14.3,0 -25.9,11.6 -25.9,25.9 0,14.3 11.7,25.9 26,25.9 z"
     style="opacity:0.5;fill:#f9f5eb"
     id="path537"
     inkscape:connector-curvature="0" />
  <path
     class="st4"
     d="m 242.7,235.2 c 1.9,-2.6 3.4,-5.5 4.3,-8.6 4.6,4.4 10.9,7.1 17.8,7.1 12.5,0 22.9,-8.8 25.4,-20.6 1.2,0.2 2.4,0.3 3.6,0.3 14.3,0 25.9,-11.6 25.9,-25.9 0,-14.3 -11.6,-25.9 -25.9,-25.9 -12.5,0 -22.9,8.8 -25.4,20.6 -1.2,-0.2 -2.4,-0.3 -3.6,-0.3 -11.9,0 -21.9,8 -25,18.9 -4.6,-4.4 -10.9,-7.1 -17.8,-7.1 -14.3,0 -25.9,11.6 -25.9,25.9 0,5.9 2,11.3 5.2,15.6 l 41.4,0 z"
     style="opacity:0.5;fill:#f9f5eb"
     id="path539"
     inkscape:connector-curvature="0" />
  <path
     d="M 41.099998474121094 45.20000076293945 L 49 41.900001525878906 L 62 41.70000076293945 L 69.5 37.20000076293945 L 75.5 41.20000076293945 L 78.30000305175781 37.20000076293945 L 83.80000305175781 37.20000076293945 L 92.80000305175781 29 L 103.5 29 L 118.80000305175781 24.399999618530273 L 133.3000030517578 30.399999618530273 L 137.39999389648438 37 L 149.1999969482422 34.79999923706055 L 154.60000610351562 45.20000076293945 Z"
     class="st4"
     style="fill: rgb(249, 245, 235);"
     transform="matrix(1, 0, 0, 1, 0, 0)"
     id="path543" />
</svg>
